<?xml version="1.0" standalone="no"?><!DOCTYPE svg PUBLIC "-//W3C//DTD SVG 1.1//EN" "http://www.w3.org/Graphics/SVG/1.1/DTD/svg11.dtd"><svg t="1496496347773" class="icon" style="" viewBox="0 0 1024 1024" version="1.1" xmlns="http://www.w3.org/2000/svg" p-id="1001" xmlns:xlink="http://www.w3.org/1999/xlink" width="16" height="16"><defs><style type="text/css"></style></defs><path d="M982.100728 553.879829c0 259.33956-210.759121 470.100728-470.100728 470.100728-256.984932 0-465.402729-206.844975-469.316875-462.264249-0.783853-2.433422-0.783853-4.704139-0.783853-7.836479 0-21.937638 17.23964-39.178301 39.178301-39.178301 21.937638 0 39.170115 17.23964 39.170115 39.178301 0 216.247112 175.505199 391.752312 391.752312 391.752312 216.248136 0 391.751289-175.505199 391.751289-391.752312 0-190.472076-135.543046-348.658841-314.968531-383.91481l0 101.852736L353.735463 135.562489 588.782757 0.019443l0 91.668793C811.301713 127.653355 982.100728 320.393077 982.100728 553.879829L982.100728 553.879829zM982.100728 553.879829" p-id="1002" fill="#2c2c2c"></path></svg>